<?xml version="1.0" standalone="no"?>
<!DOCTYPE svg PUBLIC "-//W3C//DTD SVG 20010904//EN"
 "http://www.w3.org/TR/2001/REC-SVG-20010904/DTD/svg10.dtd">
<svg version="1.0" xmlns="http://www.w3.org/2000/svg"
 width="320.000000pt" height="320.000000pt" viewBox="0 0 320.000000 320.000000"
 preserveAspectRatio="xMidYMid meet">
<metadata>
Created by potrace 1.14, written by Peter Selinger 2001-2017
</metadata>
<g transform="translate(0.000000,320.000000) scale(0.100000,-0.100000)"
fill="#000000" stroke="none">
<path d="M1545 3043 c-189 -216 -312 -415 -456 -742 l-15 -33 -48 103 c-93
199 -142 348 -167 507 l-11 73 -26 -17 c-388 -251 -640 -670 -706 -1175 -16
-117 -18 -358 -5 -464 44 -354 179 -652 394 -871 150 -153 305 -241 507 -288
178 -42 275 -50 588 -50 544 0 775 60 1020 266 223 188 375 463 447 807 21
104 26 159 29 311 3 193 -3 269 -37 434 -41 201 -132 426 -240 592 -29 44 -54
81 -58 84 -3 3 -19 23 -36 45 -53 71 -180 190 -275 258 -51 37 -94 66 -96 65
-1 -2 -10 -48 -19 -103 -21 -125 -69 -271 -148 -444 l-61 -134 -17 39 c-111
245 -188 386 -289 530 -45 65 -211 264 -220 264 -3 0 -27 -26 -55 -57z m113
-243 c126 -168 261 -418 337 -623 l36 -98 -29 -52 c-16 -29 -46 -83 -67 -122
-21 -38 -63 -117 -95 -175 -31 -58 -71 -130 -87 -160 -17 -30 -39 -71 -50 -90
-11 -19 -37 -68 -58 -107 -22 -40 -42 -73 -46 -73 -4 0 -24 33 -44 73 -21 39
-59 110 -85 157 -74 133 -159 288 -203 370 -21 41 -52 98 -68 127 l-29 51 36
99 c48 132 159 358 230 468 66 103 155 225 164 225 4 0 30 -31 58 -70z m-889
-198 c29 -94 98 -256 176 -415 l58 -117 -42 -170 c-58 -235 -81 -401 -86 -615
-5 -205 5 -321 41 -483 48 -214 130 -386 243 -506 l36 -38 -50 7 c-77 10 -200
43 -258 69 -178 79 -352 249 -463 451 -301 553 -197 1358 235 1817 40 43 76
78 80 78 3 0 17 -35 30 -78z m1775 -3 c212 -226 350 -539 395 -899 13 -102 6
-355 -13 -465 -67 -395 -258 -699 -541 -863 -80 -46 -156 -73 -267 -96 -114
-24 -117 -23 -71 27 181 197 281 528 281 927 -1 221 -26 413 -90 673 l-41 168
60 122 c77 155 137 295 171 402 15 47 30 85 33 85 4 0 41 -36 83 -81z m-1413
-766 c16 -32 90 -168 127 -233 90 -163 252 -468 252 -477 0 -6 -20 -53 -44
-105 -118 -254 -181 -461 -180 -595 0 -18 -1 -33 -3 -33 -9 0 -61 66 -95 123
-104 168 -160 408 -161 692 -1 171 5 260 27 395 21 128 49 260 56 260 4 0 13
-12 21 -27z m992 -110 c35 -185 48 -293 51 -448 7 -306 -48 -569 -159 -756
-35 -60 -88 -129 -98 -129 -1 0 -3 27 -4 61 -5 122 -62 306 -168 542 l-58 129
26 51 c40 79 140 266 227 422 42 77 92 168 111 203 18 34 36 62 40 62 3 0 18
-62 32 -137z m-428 -1006 c64 -177 83 -321 51 -388 -24 -52 -61 -69 -146 -69
-84 0 -122 17 -145 66 -18 38 -21 129 -6 203 15 75 72 241 116 336 l36 80 35
-80 c19 -44 46 -111 59 -148z"/>
</g>
</svg>
